# Blender v2.83.1 OBJ File: 'Models.blend'
# www.blender.org
mtllib Jar.mtl
o Jar_Cylinder.005
v 0.000000 -0.161645 -0.692004
v 0.000000 1.396341 -0.913024
v 0.264819 -0.161645 -0.639328
v 0.349399 1.396341 -0.843524
v 0.489321 -0.161645 -0.489321
v 0.645606 1.396341 -0.645606
v 0.639328 -0.161645 -0.264818
v 0.843524 1.396341 -0.349399
v 0.692004 -0.161645 0.000000
v 0.913024 1.396341 0.000000
v 0.639328 -0.161645 0.264819
v 0.843524 1.396341 0.349399
v 0.489321 -0.161645 0.489321
v 0.645606 1.396341 0.645606
v 0.264819 -0.161645 0.639328
v 0.349399 1.396341 0.843524
v 0.000000 -0.161645 0.692004
v 0.000000 1.396341 0.913024
v -0.264818 -0.161645 0.639328
v -0.349399 1.396341 0.843525
v -0.489321 -0.161645 0.489321
v -0.645605 1.396341 0.645606
v -0.639328 -0.161645 0.264819
v -0.843524 1.396341 0.349399
v -0.692004 -0.161645 -0.000000
v -0.913024 1.396341 -0.000000
v -0.639328 -0.161645 -0.264819
v -0.843524 1.396341 -0.349399
v -0.489321 -0.161645 -0.489321
v -0.645605 1.396341 -0.645606
v -0.264818 -0.161645 -0.639329
v -0.349399 1.396341 -0.843525
v 0.000000 0.031977 -0.913024
v 0.349399 0.031977 -0.843524
v 0.645606 0.031977 -0.645606
v 0.843524 0.031977 -0.349399
v 0.913024 0.031977 0.000000
v 0.843524 0.031977 0.349399
v 0.645606 0.031977 0.645606
v 0.349399 0.031977 0.843524
v 0.000000 0.031977 0.913024
v -0.349399 0.031977 0.843525
v -0.645605 0.031977 0.645606
v -0.843524 0.031977 0.349399
v -0.913024 0.031977 -0.000000
v -0.843524 0.031977 -0.349399
v -0.645605 0.031977 -0.645606
v -0.349399 0.031977 -0.843525
v 0.314352 1.521649 -0.758914
v 0.000000 1.521649 -0.821442
v 0.580847 1.521649 -0.580847
v 0.758914 1.521649 -0.314352
v 0.821442 1.521649 0.000000
v 0.758914 1.521649 0.314352
v 0.580847 1.521649 0.580847
v 0.314352 1.521649 0.758914
v 0.000000 1.521649 0.821442
v -0.314352 1.521649 0.758914
v -0.580847 1.521649 0.580848
v -0.758914 1.521649 0.314352
v -0.821442 1.521649 -0.000000
v -0.758914 1.521649 -0.314352
v -0.580847 1.521649 -0.580848
v -0.314352 1.521649 -0.758914
v 0.314352 1.609134 -0.758914
v 0.000000 1.609134 -0.821442
v 0.580847 1.609134 -0.580847
v 0.758914 1.609134 -0.314352
v 0.821442 1.609134 0.000000
v 0.758914 1.609134 0.314352
v 0.580847 1.609134 0.580847
v 0.314352 1.609134 0.758914
v 0.000000 1.609134 0.821442
v -0.314352 1.609134 0.758914
v -0.580847 1.609134 0.580848
v -0.758914 1.609134 0.314352
v -0.821442 1.609134 -0.000000
v -0.758914 1.609134 -0.314352
v -0.580847 1.609134 -0.580848
v -0.314352 1.609134 -0.758914
v 0.343649 1.687277 -0.829642
v 0.000000 1.687277 -0.897998
v 0.634980 1.687277 -0.634980
v 0.829642 1.687277 -0.343649
v 0.897998 1.687277 0.000000
v 0.829642 1.687277 0.343649
v 0.634980 1.687277 0.634980
v 0.343649 1.687277 0.829642
v 0.000000 1.687277 0.897998
v -0.343649 1.687277 0.829642
v -0.634980 1.687277 0.634980
v -0.829642 1.687277 0.343649
v -0.897998 1.687277 -0.000000
v -0.829642 1.687277 -0.343649
v -0.634980 1.687277 -0.634980
v -0.343648 1.687277 -0.829642
v 0.000000 1.501152 -0.745334
v 0.000000 1.815930 -0.828356
v 0.285227 1.501152 -0.688599
v 0.316998 1.815930 -0.765301
v 0.527031 1.501152 -0.527031
v 0.585736 1.815930 -0.585736
v 0.688599 1.501152 -0.285227
v 0.765301 1.815930 -0.316998
v 0.745334 1.501152 0.000000
v 0.828356 1.815930 0.000000
v 0.688599 1.501152 0.285227
v 0.765301 1.815930 0.316998
v 0.527031 1.501152 0.527031
v 0.585736 1.815930 0.585736
v 0.285227 1.501152 0.688599
v 0.316998 1.815930 0.765301
v 0.000000 1.501152 0.745334
v 0.000000 1.815930 0.828356
v -0.285227 1.501152 0.688599
v -0.316998 1.815930 0.765301
v -0.527031 1.501152 0.527031
v -0.585736 1.815930 0.585736
v -0.688599 1.501152 0.285227
v -0.765301 1.815930 0.316998
v -0.745334 1.501152 -0.000000
v -0.828356 1.815930 -0.000000
v -0.688599 1.501152 -0.285227
v -0.765301 1.815930 -0.316998
v -0.527031 1.501152 -0.527031
v -0.585736 1.815930 -0.585736
v -0.285227 1.501152 -0.688599
v -0.316998 1.815930 -0.765301
vt 0.847674 0.230747
vt 0.840896 0.230747
vt 0.840896 0.312647
vt 0.847674 0.312647
vt 0.834118 0.230747
vt 0.834118 0.312647
vt 0.827340 0.230747
vt 0.827340 0.312647
vt 0.820563 0.230747
vt 0.820563 0.312647
vt 0.813785 0.230747
vt 0.813785 0.312647
vt 0.807007 0.230747
vt 0.807007 0.312647
vt 0.800229 0.230747
vt 0.800229 0.312647
vt 0.793451 0.230747
vt 0.793451 0.312647
vt 0.786674 0.230747
vt 0.786674 0.312647
vt 0.779896 0.230747
vt 0.779896 0.312647
vt 0.773118 0.230747
vt 0.773118 0.312647
vt 0.766340 0.230747
vt 0.766340 0.312647
vt 0.759562 0.230747
vt 0.759562 0.312647
vt 0.752785 0.230747
vt 0.752785 0.312647
vt 0.745748 0.274926
vt 0.752121 0.273814
vt 0.751138 0.256225
vt 0.744849 0.255255
vt 0.746007 0.230747
vt 0.746007 0.312647
vt 0.739229 0.230747
vt 0.739229 0.312647
vt 0.792274 0.296785
vt 0.779402 0.294225
vt 0.768491 0.286934
vt 0.761200 0.276022
vt 0.758639 0.263151
vt 0.761200 0.250280
vt 0.768491 0.239368
vt 0.779402 0.232077
vt 0.792274 0.229517
vt 0.805145 0.232077
vt 0.816056 0.239368
vt 0.823347 0.250280
vt 0.825908 0.263151
vt 0.823347 0.276022
vt 0.816056 0.286934
vt 0.805145 0.294225
vt 0.746007 0.219124
vt 0.739229 0.219124
vt 0.752785 0.219124
vt 0.759562 0.219124
vt 0.766340 0.219124
vt 0.773118 0.219124
vt 0.779896 0.219124
vt 0.786674 0.219124
vt 0.793451 0.219124
vt 0.800229 0.219124
vt 0.807007 0.219124
vt 0.813785 0.219124
vt 0.820563 0.219124
vt 0.827340 0.219124
vt 0.834118 0.219124
vt 0.840896 0.219124
vt 0.847674 0.219124
vt 0.785268 0.311142
vt 0.785845 0.308554
vt 0.770896 0.301825
vt 0.769310 0.303955
vt 0.836919 0.236749
vt 0.831400 0.240316
vt 0.838165 0.256958
vt 0.844641 0.255733
vt 0.822666 0.309722
vt 0.819023 0.304317
vt 0.802785 0.311218
vt 0.804029 0.317582
vt 0.751556 0.236508
vt 0.756992 0.239881
vt 0.768941 0.227251
vt 0.765300 0.221954
vt 0.783864 0.317462
vt 0.765439 0.309158
vt 0.838184 0.274949
vt 0.844641 0.276249
vt 0.783793 0.214105
vt 0.785028 0.220444
vt 0.802616 0.220547
vt 0.803974 0.214196
vt 0.752026 0.293974
vt 0.757645 0.290769
vt 0.836924 0.295201
vt 0.831459 0.291574
vt 0.822642 0.222162
vt 0.818915 0.227532
vt 0.829120 0.241789
vt 0.825412 0.244270
vt 0.831108 0.258381
vt 0.835490 0.257467
vt 0.785534 0.223053
vt 0.802054 0.223165
vt 0.802268 0.308604
vt 0.770436 0.229429
vt 0.817514 0.302096
vt 0.759228 0.241270
vt 0.829199 0.290086
vt 0.753750 0.256614
vt 0.835516 0.274418
vt 0.754793 0.273328
vt 0.759968 0.289453
vt 0.817375 0.229747
vt 0.831115 0.273634
vt 0.763710 0.287246
vt 0.759339 0.272444
vt 0.814900 0.233423
vt 0.773371 0.298286
vt 0.801193 0.227472
vt 0.786664 0.304301
vt 0.786425 0.227314
vt 0.801304 0.304349
vt 0.772937 0.232953
vt 0.814948 0.298515
vt 0.762922 0.243460
vt 0.825433 0.287725
vt 0.758025 0.257138
vt 0.992048 0.975992
vt 0.992048 0.988831
vt 0.990443 0.988831
vt 0.990443 0.975992
vt 0.988838 0.988831
vt 0.988838 0.975992
vt 0.987233 0.988831
vt 0.987233 0.975992
vt 0.985628 0.988831
vt 0.985628 0.975992
vt 0.984023 0.988831
vt 0.984023 0.975992
vt 0.982419 0.988831
vt 0.982419 0.975992
vt 0.980814 0.988831
vt 0.980814 0.975992
vt 0.979209 0.988831
vt 0.979209 0.975992
vt 0.977604 0.988831
vt 0.977604 0.975992
vt 0.975999 0.988831
vt 0.975999 0.975992
vt 0.974394 0.988831
vt 0.974394 0.975992
vt 0.972789 0.988831
vt 0.972789 0.975992
vt 0.971184 0.988831
vt 0.971184 0.975992
vt 0.969580 0.988831
vt 0.969580 0.975992
vt 0.975148 0.975267
vt 0.972789 0.975736
vt 0.970431 0.975267
vt 0.968432 0.973931
vt 0.967096 0.971931
vt 0.966627 0.969573
vt 0.967096 0.967215
vt 0.968432 0.965215
vt 0.970431 0.963879
vt 0.972789 0.963410
vt 0.975148 0.963879
vt 0.977147 0.965215
vt 0.978483 0.967215
vt 0.978952 0.969573
vt 0.978483 0.971931
vt 0.977147 0.973931
vt 0.967975 0.988831
vt 0.967975 0.975992
vt 0.966370 0.988831
vt 0.966370 0.975992
vt 0.985628 0.975736
vt 0.987987 0.975267
vt 0.989986 0.973931
vt 0.991322 0.971931
vt 0.991791 0.969573
vt 0.991322 0.967215
vt 0.989986 0.965215
vt 0.987987 0.963879
vt 0.985628 0.963410
vt 0.983270 0.963879
vt 0.981271 0.965215
vt 0.979935 0.967215
vt 0.979466 0.969573
vt 0.979935 0.971931
vt 0.981271 0.973931
vt 0.983270 0.975267
vn -0.1951 0.0000 0.9808
vn -0.5556 0.0000 0.8315
vn -0.8315 0.0000 0.5556
vn -0.9808 0.0000 0.1951
vn -0.9808 0.0000 -0.1951
vn -0.8315 0.0000 -0.5556
vn -0.5556 0.0000 -0.8315
vn -0.1951 0.0000 -0.9808
vn 0.1951 0.0000 -0.9808
vn 0.5556 0.0000 -0.8315
vn 0.8315 0.0000 -0.5556
vn 0.9808 0.0000 -0.1951
vn 0.9808 0.0000 0.1951
vn 0.8315 0.0000 0.5556
vn -0.1586 -0.5826 -0.7971
vn 0.5556 0.0000 0.8315
vn 0.1951 0.0000 0.9808
vn 0.0000 1.0000 -0.0000
vn 0.1300 0.7458 0.6534
vn 0.3701 0.7458 0.5539
vn 0.5539 0.7458 0.3701
vn 0.6534 0.7458 0.1300
vn 0.6534 0.7458 -0.1300
vn 0.5539 0.7458 -0.3701
vn 0.3701 0.7458 -0.5539
vn 0.1300 0.7458 -0.6534
vn -0.1300 0.7458 -0.6534
vn -0.3701 0.7458 -0.5539
vn -0.5539 0.7458 -0.3701
vn -0.6534 0.7458 -0.1300
vn -0.6534 0.7458 0.1300
vn -0.5539 0.7458 0.3701
vn -0.3701 0.7458 0.5539
vn -0.1300 0.7458 0.6534
vn -0.1586 -0.5826 0.7971
vn 0.7971 -0.5826 0.1586
vn -0.6758 -0.5826 -0.4515
vn 0.6758 -0.5826 -0.4515
vn 0.1586 -0.5826 0.7971
vn -0.7971 -0.5826 0.1586
vn 0.1586 -0.5826 -0.7971
vn 0.6758 -0.5826 0.4515
vn -0.4515 -0.5826 0.6758
vn -0.4515 -0.5826 -0.6758
vn 0.7971 -0.5826 -0.1586
vn -0.7971 -0.5826 -0.1586
vn 0.4515 -0.5826 -0.6758
vn 0.4515 -0.5826 0.6758
vn -0.6758 -0.5826 0.4515
vn -0.1407 0.6929 0.7072
vn 0.1407 0.6929 0.7072
vn 0.1407 0.6929 -0.7072
vn -0.4006 0.6929 0.5996
vn 0.4006 0.6929 -0.5996
vn -0.5996 0.6929 0.4006
vn 0.5996 0.6929 -0.4006
vn -0.7072 0.6929 0.1407
vn 0.7072 0.6929 -0.1407
vn -0.7072 0.6929 -0.1407
vn 0.7072 0.6929 0.1407
vn -0.5996 0.6929 -0.4006
vn 0.5996 0.6929 0.4006
vn -0.4006 0.6929 -0.5996
vn 0.4006 0.6929 0.5996
vn -0.1407 0.6929 -0.7072
vn 0.1889 -0.2504 -0.9495
vn 0.5379 -0.2504 -0.8050
vn 0.8050 -0.2504 -0.5379
vn 0.9495 -0.2504 -0.1889
vn 0.9495 -0.2504 0.1889
vn 0.8050 -0.2504 0.5379
vn 0.5379 -0.2504 0.8050
vn 0.1889 -0.2504 0.9495
vn -0.1889 -0.2504 0.9495
vn -0.5379 -0.2504 0.8050
vn -0.8050 -0.2504 0.5379
vn -0.9495 -0.2504 0.1889
vn -0.9495 -0.2504 -0.1889
vn -0.8050 -0.2504 -0.5379
vn -0.5379 -0.2504 -0.8050
vn -0.1889 -0.2504 -0.9495
vn 0.0000 -1.0000 -0.0000
usemtl Material.001
s off
f 33/1/1 34/2/1 4/3/1 2/4/1
f 34/2/2 35/5/2 6/6/2 4/3/2
f 35/5/3 36/7/3 8/8/3 6/6/3
f 36/7/4 37/9/4 10/10/4 8/8/4
f 37/9/5 38/11/5 12/12/5 10/10/5
f 38/11/6 39/13/6 14/14/6 12/12/6
f 39/13/7 40/15/7 16/16/7 14/14/7
f 40/15/8 41/17/8 18/18/8 16/16/8
f 41/17/9 42/19/9 20/20/9 18/18/9
f 42/19/10 43/21/10 22/22/10 20/20/10
f 43/21/11 44/23/11 24/24/11 22/22/11
f 44/23/12 45/25/12 26/26/12 24/24/12
f 45/25/13 46/27/13 28/28/13 26/26/13
f 46/27/14 47/29/14 30/30/14 28/28/14
f 18/31/15 57/32/15 56/33/15 16/34/15
f 47/29/16 48/35/16 32/36/16 30/30/16
f 48/35/17 33/37/17 2/38/17 32/36/17
f 1/39/18 31/40/18 29/41/18 27/42/18 25/43/18 23/44/18 21/45/18 19/46/18 17/47/18 15/48/18 13/49/18 11/50/18 9/51/18 7/52/18 5/53/18 3/54/18
f 31/55/19 1/56/19 33/37/19 48/35/19
f 29/57/20 31/55/20 48/35/20 47/29/20
f 27/58/21 29/57/21 47/29/21 46/27/21
f 25/59/22 27/58/22 46/27/22 45/25/22
f 23/60/23 25/59/23 45/25/23 44/23/23
f 21/61/24 23/60/24 44/23/24 43/21/24
f 19/62/25 21/61/25 43/21/25 42/19/25
f 17/63/26 19/62/26 42/19/26 41/17/26
f 15/64/27 17/63/27 41/17/27 40/15/27
f 13/65/28 15/64/28 40/15/28 39/13/28
f 11/66/29 13/65/29 39/13/29 38/11/29
f 9/67/30 11/66/30 38/11/30 37/9/30
f 7/68/31 9/67/31 37/9/31 36/7/31
f 5/69/32 7/68/32 36/7/32 35/5/32
f 3/70/33 5/69/33 35/5/33 34/2/33
f 1/71/34 3/70/34 34/2/34 33/1/34
f 60/72/11 76/73/11 75/74/11 59/75/11
f 4/76/35 49/77/35 50/78/35 2/79/35
f 28/80/36 62/81/36 61/82/36 26/83/36
f 14/84/37 55/85/37 54/86/37 12/87/37
f 24/88/38 60/72/38 59/75/38 22/89/38
f 2/79/39 50/78/39 64/90/39 32/91/39
f 10/92/40 53/93/40 52/94/40 8/95/40
f 20/96/41 58/97/41 57/32/41 18/31/41
f 30/98/42 63/99/42 62/81/42 28/80/42
f 6/100/43 51/101/43 49/77/43 4/76/43
f 16/34/44 56/33/44 55/85/44 14/84/44
f 26/83/45 61/82/45 60/72/45 24/88/45
f 12/87/46 54/86/46 53/93/46 10/92/46
f 22/89/47 59/75/47 58/97/47 20/96/47
f 32/91/48 64/90/48 63/99/48 30/98/48
f 8/95/49 52/94/49 51/101/49 6/100/49
f 65/102/50 81/103/50 82/104/50 66/105/50
f 53/93/4 69/106/4 68/107/4 52/94/4
f 61/82/12 77/108/12 76/73/12 60/72/12
f 54/86/5 70/109/5 69/106/5 53/93/5
f 62/81/13 78/110/13 77/108/13 61/82/13
f 55/85/6 71/111/6 70/109/6 54/86/6
f 63/99/14 79/112/14 78/110/14 62/81/14
f 56/33/7 72/113/7 71/111/7 55/85/7
f 64/90/16 80/114/16 79/112/16 63/99/16
f 57/32/8 73/115/8 72/113/8 56/33/8
f 49/77/1 65/102/1 66/105/1 50/78/1
f 50/78/17 66/105/17 80/114/17 64/90/17
f 58/97/9 74/116/9 73/115/9 57/32/9
f 51/101/2 67/117/2 65/102/2 49/77/2
f 59/75/10 75/74/10 74/116/10 58/97/10
f 52/94/3 68/107/3 67/117/3 51/101/3
f 66/105/51 82/104/51 96/118/51 80/114/51
f 74/116/52 90/119/52 89/120/52 73/115/52
f 67/117/53 83/121/53 81/103/53 65/102/53
f 75/74/54 91/122/54 90/119/54 74/116/54
f 68/107/55 84/123/55 83/121/55 67/117/55
f 76/73/56 92/124/56 91/122/56 75/74/56
f 69/106/57 85/125/57 84/123/57 68/107/57
f 77/108/58 93/126/58 92/124/58 76/73/58
f 70/109/59 86/127/59 85/125/59 69/106/59
f 78/110/60 94/128/60 93/126/60 77/108/60
f 71/111/61 87/129/61 86/127/61 70/109/61
f 79/112/62 95/130/62 94/128/62 78/110/62
f 72/113/63 88/131/63 87/129/63 71/111/63
f 80/114/64 96/118/64 95/130/64 79/112/64
f 73/115/65 89/120/65 88/131/65 72/113/65
f 97/132/66 98/133/66 100/134/66 99/135/66
f 99/135/67 100/134/67 102/136/67 101/137/67
f 101/137/68 102/136/68 104/138/68 103/139/68
f 103/139/69 104/138/69 106/140/69 105/141/69
f 105/141/70 106/140/70 108/142/70 107/143/70
f 107/143/71 108/142/71 110/144/71 109/145/71
f 109/145/72 110/144/72 112/146/72 111/147/72
f 111/147/73 112/146/73 114/148/73 113/149/73
f 113/149/74 114/148/74 116/150/74 115/151/74
f 115/151/75 116/150/75 118/152/75 117/153/75
f 117/153/76 118/152/76 120/154/76 119/155/76
f 119/155/77 120/154/77 122/156/77 121/157/77
f 121/157/78 122/156/78 124/158/78 123/159/78
f 123/159/79 124/158/79 126/160/79 125/161/79
f 100/162/18 98/163/18 128/164/18 126/165/18 124/166/18 122/167/18 120/168/18 118/169/18 116/170/18 114/171/18 112/172/18 110/173/18 108/174/18 106/175/18 104/176/18 102/177/18
f 125/161/80 126/160/80 128/178/80 127/179/80
f 127/179/81 128/178/81 98/180/81 97/181/81
f 97/182/82 99/183/82 101/184/82 103/185/82 105/186/82 107/187/82 109/188/82 111/189/82 113/190/82 115/191/82 117/192/82 119/193/82 121/194/82 123/195/82 125/196/82 127/197/82
