# Blender v2.83.1 OBJ File: 'Models.blend'
# www.blender.org
mtllib Mushroom_5.mtl
o _Shroom_5_Cylinder.026
v -0.000000 -0.059104 -0.863033
v -0.000000 0.059104 -0.955429
v 0.683025 -0.059104 -0.593720
v 0.820965 0.059104 -0.631727
v 0.851718 -0.059104 0.280368
v 1.023727 0.059104 0.095624
v 0.433884 -0.250000 0.425891
v 0.433884 0.250000 0.425891
v -0.433884 -0.250000 0.425891
v -0.433884 0.250000 0.425891
v -0.851718 -0.059104 0.280368
v -1.023727 0.059104 0.095624
v -0.683025 -0.059104 -0.593720
v -0.820965 0.059104 -0.631727
vt 0.232285 0.128665
vt 0.192973 0.107313
vt 0.232255 0.119662
vt 0.183232 0.112896
vt 0.174839 0.057399
vt 0.202854 0.049957
vt 0.257759 0.081346
vt 0.202961 0.081531
vt 0.338292 0.540960
vt 0.338291 0.593810
vt 0.153505 0.567385
vt 0.298861 0.067571
vt 0.271216 0.105503
vt 0.287252 0.053981
vt 0.281096 0.111105
vt 0.258412 0.041805
vt 0.164441 0.070849
vt 0.174980 0.069571
vt 0.257653 0.049772
vt 0.285659 0.069196
vt 0.272341 0.626762
vt 0.190103 0.615001
vt 0.190105 0.519768
vt 0.272343 0.508008
vt 0.202660 0.043693
vt 0.159805 0.060654
vt 0.300773 0.060177
vn 0.2967 -0.5881 -0.7524
vn 0.6265 -0.7700 -0.1209
vn -0.0000 0.0000 1.0000
vn 0.0000 0.9906 -0.1369
vn -0.4925 -0.8651 -0.0950
vn -0.2967 -0.5881 -0.7524
vn -0.3924 -0.9167 -0.0757
vn 0.4636 -0.8766 -0.1292
vn 0.3289 0.0000 0.9444
vn -0.3289 0.0000 0.9444
vn 0.2688 0.9603 -0.0749
vn 0.0613 0.9859 -0.1555
vn -0.0613 0.9859 -0.1555
vn -0.2688 0.9603 -0.0749
vn -0.6135 -0.7709 -0.1710
vn -0.0662 -0.9836 -0.1680
vn 0.0662 -0.9836 -0.1680
vn 0.3924 -0.9167 -0.0757
vn 0.0000 -0.9892 -0.1465
vn 0.5425 0.3808 0.7488
vn -0.5425 0.3808 0.7488
usemtl Material.001
s off
f 2/1/1 3/2/1 1/3/1
f 4/4/2 5/5/2 3/2/2
f 8/6/3 9/7/3 7/8/3
f 10/9/4 8/10/4 2/11/4
f 12/12/5 13/13/5 11/14/5
f 14/15/6 1/3/6 13/13/6
f 9/16/7 11/14/7 13/13/7
f 2/1/1 4/4/1 3/2/1
f 4/4/8 6/17/8 5/5/8
f 5/18/9 8/6/9 7/8/9
f 8/6/3 10/19/3 9/7/3
f 10/19/10 11/20/10 9/7/10
f 6/21/11 4/22/11 8/10/11
f 4/22/12 2/11/12 8/10/12
f 2/11/13 14/23/13 10/9/13
f 14/23/14 12/24/14 10/9/14
f 12/12/15 14/15/15 13/13/15
f 14/15/6 2/1/6 1/3/6
f 13/13/16 1/3/16 9/16/16
f 1/3/17 3/2/17 7/25/17
f 3/2/18 5/5/18 7/25/18
f 7/25/19 9/16/19 1/3/19
f 5/18/20 6/26/20 8/6/20
f 10/19/21 12/27/21 11/20/21
