# Blender v2.83.1 OBJ File: 'Models.blend'
# www.blender.org
mtllib Tree_4.mtl
o Cube.014_Cube.078
v 1.719947 -0.005246 1.719939
v -1.719947 -0.005246 1.719939
v -1.719947 0.005246 -1.719939
v 1.719947 0.005246 -1.719939
v 0.000000 40.354683 0.064265
v -0.632090 12.401598 6.165651
v -1.273272 12.392509 6.089987
v -1.304960 13.007341 6.284664
v -0.663778 13.016430 6.360327
v -1.464336 11.455282 12.791112
v -1.046005 20.723183 -4.880350
v -0.424804 20.734997 -4.941517
v -0.457939 21.316750 -5.165652
v -1.079140 21.304935 -5.104484
v -1.089218 19.503265 -11.137141
v -0.913926 19.687832 -11.189832
v 4.441599 29.377544 1.338672
v 4.338175 29.358730 1.795189
v 4.532522 29.780529 1.856602
v 4.635946 29.799343 1.400086
v 9.860033 27.962233 2.322569
v 9.915739 28.099960 2.204458
v -4.595596 13.573663 -1.676380
v -4.313266 13.581630 -2.257025
v -4.446831 14.210845 -2.313336
v -4.729161 14.202878 -1.732691
v -7.868702 13.456660 -3.817249
v 6.020873 21.119711 3.544282
v 5.744430 21.105089 4.103869
v 5.884481 21.707537 4.188797
v 6.160923 21.722158 3.629209
v 10.119332 20.670481 5.521706
v -4.449942 31.374315 0.452127
v -4.564724 31.810888 -0.000741
v -4.555287 31.814009 0.451289
v -8.332277 30.827717 0.418167
v 0.875028 13.974390 0.856049
v -0.862614 14.134553 1.012514
v -0.938457 14.221913 -1.021188
v 0.875028 13.962917 -0.893969
v 0.743642 17.219547 0.790622
v -0.743642 17.219547 0.790622
v -0.743642 17.290291 -0.694979
v 0.743642 17.290291 -0.694979
v -0.679373 21.459265 -0.432115
v 0.679373 21.459265 -0.432115
v 0.659108 22.711081 0.967494
v -0.659108 22.711081 0.967494
v -0.677579 22.804432 -0.449322
v 0.538472 22.804432 -0.526969
v -0.602400 25.469795 -0.251118
v 0.602400 25.469795 -0.251118
v 0.602400 25.486076 0.953571
v -0.602400 25.486076 0.953571
v -0.456340 31.198057 -0.182469
v 0.456340 31.198057 -0.182469
v 0.456340 31.210390 0.730128
v -0.435072 32.032181 -0.172473
v 0.569430 31.993134 -0.054323
v 0.459658 31.999012 0.746620
v -0.435072 32.043938 0.697592
v -0.370745 34.084076 -0.150043
v 0.370745 34.084076 -0.150043
v 0.370745 34.102585 0.591217
v -0.370745 34.102585 0.591217
v 0.447834 14.294716 1.369967
v -0.934396 15.487411 1.712740
v 0.363637 15.487411 1.913728
v 0.218222 13.893042 2.387469
v -0.939064 13.893042 2.208274
v 0.342604 23.818954 -1.244331
v -0.771282 23.818954 -1.089038
v 0.243691 22.402042 -1.578094
v 0.903525 32.580303 0.921432
v 1.123069 32.580303 0.189609
v 1.288779 31.550631 0.263573
v -1.501361 14.480909 0.000797
v -1.382872 15.663101 -1.313994
v -1.882347 15.663101 -0.164790
v -2.409681 14.214925 -0.492582
v -1.982296 14.214925 -1.475920
v -3.895494 13.779833 -1.299644
v 1.380659 22.945345 0.520977
v 0.803768 22.945345 1.503306
v 1.152581 24.010305 1.708153
v 1.729472 24.010305 0.725824
v -0.804277 32.238281 0.623470
v -0.799960 32.238281 -0.129598
v -1.002864 32.963509 -0.130761
v -1.007181 32.963509 0.622307
vt 0.022702 0.364594
vt 0.119126 0.364594
vt 0.119126 0.461018
vt 0.022702 0.364594
vt 0.119126 0.364594
vt 0.119126 0.461018
vt 0.119126 0.364594
vt 0.119126 0.461018
vt 0.119126 0.364594
vt 0.119126 0.461018
vt 0.022702 0.364594
vt 0.119126 0.364594
vt 0.119126 0.461018
vt 0.022702 0.364594
vt 0.119126 0.364594
vt 0.119126 0.461018
vt 0.022702 0.364594
vt 0.119126 0.461018
vt 0.022702 0.461018
vt 0.022702 0.364594
vt 0.119126 0.461018
vt 0.022702 0.461018
vt 0.022702 0.364594
vt 0.119126 0.364594
vt 0.119126 0.461018
vt 0.022702 0.364594
vt 0.119126 0.364594
vt 0.119126 0.461018
vt 0.022702 0.364594
vt 0.119126 0.461018
vt 0.022702 0.461018
vt 0.022702 0.364594
vt 0.119126 0.364594
vt 0.022702 0.364594
vt 0.119126 0.364594
vt 0.022702 0.364594
vt 0.119126 0.364594
vt 0.119126 0.461018
vt 0.022702 0.461018
vt 0.119126 0.364594
vt 0.119126 0.461018
vt 0.119126 0.461018
vt 0.022702 0.461018
vt 0.119126 0.364594
vt 0.119126 0.364594
vt 0.119126 0.461018
vt 0.022702 0.364594
vt 0.119126 0.461018
vt 0.022702 0.364594
vt 0.022702 0.364594
vt 0.119126 0.461018
vt 0.022702 0.461018
vt 0.022702 0.364594
vt 0.119126 0.364594
vt 0.119126 0.461018
vt 0.119126 0.461018
vt 0.022702 0.461018
vt 0.022702 0.461018
vt 0.022702 0.364594
vt 0.119126 0.364594
vt 0.022702 0.461018
vt 0.022702 0.364594
vt 0.119126 0.364594
vt 0.022702 0.364594
vt 0.119126 0.364594
vt 0.119126 0.461018
vt 0.119126 0.364594
vt 0.022702 0.461018
vt 0.022702 0.364594
vt 0.119126 0.461018
vt 0.022702 0.364594
vt 0.119126 0.364594
vt 0.119126 0.461018
vt 0.119126 0.364594
vt 0.119126 0.461018
vt 0.022702 0.364594
vt 0.119126 0.461018
vt 0.022702 0.461018
vt 0.022702 0.461018
vt 0.022702 0.461018
vt 0.119126 0.364594
vt 0.022702 0.364594
vt 0.119126 0.461018
vt 0.022702 0.461018
vt 0.022702 0.461018
vt 0.119126 0.364594
vt 0.022702 0.461018
vt 0.022702 0.364594
vt 0.119126 0.364594
vt 0.022702 0.461018
vt 0.119126 0.364594
vt 0.119126 0.364594
vt 0.022702 0.461018
vt 0.022702 0.364594
vt 0.022702 0.461018
vt 0.119126 0.364594
vt 0.119126 0.461018
vt 0.022702 0.461018
vt 0.022702 0.364594
vt 0.119126 0.461018
vt 0.022702 0.461018
vt 0.119126 0.364594
vt 0.119126 0.461018
vt 0.022702 0.364594
vt 0.119126 0.364594
vt 0.022702 0.364594
vt 0.119126 0.364594
vt 0.119126 0.364594
vt 0.119126 0.364594
vt 0.022702 0.364594
vt 0.119126 0.364594
vt 0.022702 0.364594
vt 0.022702 0.461018
vt 0.119126 0.364594
vt 0.119126 0.461018
vt 0.022702 0.364594
vt 0.119126 0.364594
vt 0.119126 0.461018
vt 0.022702 0.364594
vt 0.119126 0.364594
vt 0.119126 0.364594
vt 0.119126 0.461018
vt 0.022702 0.461018
vt 0.119126 0.461018
vt 0.022702 0.461018
vt 0.119126 0.364594
vt 0.022702 0.461018
vt 0.119126 0.364594
vt 0.119126 0.364594
vt 0.022702 0.461018
vt 0.022702 0.364594
vt 0.119126 0.364594
vt 0.119126 0.461018
vt 0.022702 0.461018
vt 0.022702 0.461018
vt 0.119126 0.364594
vt 0.022702 0.461018
vt 0.119126 0.364594
vt 0.022702 0.461018
vt 0.119126 0.364594
vt 0.119126 0.461018
vt 0.119126 0.364594
vt 0.119126 0.461018
vt 0.022702 0.461018
vt 0.119126 0.461018
vt 0.022702 0.461018
vt 0.119126 0.364594
vt 0.022702 0.461018
vt 0.119126 0.364594
vt 0.119126 0.364594
vt 0.022702 0.461018
vt 0.119126 0.364594
vt 0.119126 0.461018
vt 0.022702 0.364594
vt 0.119126 0.364594
vt 0.022702 0.364594
vt 0.119126 0.364594
vt 0.119126 0.364594
vt 0.022702 0.461018
vt 0.022702 0.364594
vt 0.119126 0.461018
vt 0.022702 0.461018
vt 0.119126 0.461018
vt 0.119126 0.364594
vt 0.022702 0.364594
vt 0.022702 0.461018
vt 0.119126 0.364594
vt 0.119126 0.364594
vt 0.119126 0.461018
vt 0.022702 0.461018
vt 0.119126 0.461018
vt 0.022702 0.461018
vt 0.119126 0.461018
vt 0.022702 0.461018
vt 0.022702 0.461018
vt 0.119126 0.364594
vt 0.022702 0.364594
vt 0.119126 0.461018
vt 0.022702 0.461018
vt 0.119126 0.461018
vt 0.119126 0.364594
vt 0.022702 0.461018
vt 0.119126 0.461018
vt 0.022702 0.461018
vt 0.119126 0.364594
vt 0.119126 0.461018
vt 0.022702 0.461018
vt 0.119126 0.461018
vt 0.022702 0.461018
vt 0.119126 0.461018
vt 0.022702 0.461018
vt 0.119126 0.364594
vt 0.119126 0.461018
vt 0.022702 0.364594
vt 0.119126 0.364594
vt 0.022702 0.461018
vt 0.022702 0.364594
vt 0.119126 0.364594
vt 0.119126 0.364594
vt 0.119126 0.461018
vt 0.022702 0.461018
vt 0.119126 0.461018
vt 0.022702 0.461018
vt 0.119126 0.364594
vt 0.022702 0.461018
vt 0.022702 0.364594
vt 0.119126 0.364594
vt 0.119126 0.364594
vt 0.022702 0.461018
vt 0.119126 0.461018
vt 0.022702 0.461018
vt 0.022702 0.461018
vt 0.022702 0.364594
vt 0.119126 0.364594
vt 0.119126 0.461018
vt 0.119126 0.461018
vt 0.022702 0.461018
vt 0.022702 0.364594
vt 0.119126 0.461018
vt 0.022702 0.364594
vt 0.119126 0.364594
vt 0.119126 0.364594
vt 0.022702 0.461018
vt 0.022702 0.461018
vt 0.022702 0.364594
vt 0.022702 0.461018
vt 0.022702 0.461018
vt 0.119126 0.461018
vt 0.022702 0.461018
vt 0.119126 0.461018
vt 0.022702 0.461018
vt 0.022702 0.364594
vt 0.119126 0.461018
vt 0.022702 0.461018
vt 0.022702 0.364594
vt 0.119126 0.364594
vt 0.022702 0.461018
vt 0.022702 0.461018
vt 0.022702 0.461018
vt 0.022702 0.364594
vt 0.119126 0.364594
vt 0.119126 0.364594
vt 0.022702 0.364594
vt 0.022702 0.461018
vt 0.119126 0.461018
vt 0.022702 0.461018
vt 0.022702 0.364594
vt 0.119126 0.461018
vt 0.022702 0.461018
vt 0.022702 0.461018
vt 0.022702 0.461018
vt 0.119126 0.461018
vt 0.022702 0.461018
vt 0.022702 0.461018
vt 0.119126 0.364594
vt 0.119126 0.364594
vt 0.119126 0.461018
vt 0.119126 0.364594
vt 0.022702 0.461018
vt 0.022702 0.364594
vt 0.022702 0.461018
vt 0.022702 0.364594
vt 0.022702 0.461018
vt 0.022702 0.461018
vt 0.022702 0.461018
vn 0.2311 0.0672 -0.9706
vn 0.7689 -0.2635 -0.5825
vn 0.0000 0.3556 -0.9347
vn -0.8164 0.4557 -0.3548
vn -0.0335 -0.8604 0.5084
vn -0.3861 0.0125 0.9224
vn 0.8953 0.4454 -0.0111
vn 0.7458 0.5020 0.4380
vn -0.1227 0.4591 -0.8799
vn -0.4499 -0.8928 -0.0216
vn 0.6462 -0.2784 0.7106
vn 0.0000 0.5440 0.8391
vn -0.1345 0.4771 0.8685
vn 0.0422 -0.1864 -0.9816
vn -0.8783 -0.2239 0.4225
vn -0.3329 -0.0718 0.9402
vn 0.9919 0.0112 0.1262
vn 0.0000 0.5155 -0.8569
vn 0.0000 -0.9163 0.4006
vn 0.0000 0.4553 0.8904
vn -0.8148 0.5792 0.0276
vn -0.0652 -0.2414 0.9682
vn 0.8145 -0.1595 -0.5579
vn -0.5248 -0.8373 -0.1534
vn 0.9822 -0.0162 -0.1872
vn 0.0000 0.2120 0.9773
vn 0.0000 -1.0000 -0.0031
vn -0.9978 0.0529 0.0395
vn 0.1154 -0.0345 -0.9927
vn -0.1339 0.1017 0.9858
vn -0.8710 0.4911 -0.0123
vn 0.4390 -0.8607 0.2578
vn -0.2939 -0.0624 0.9538
vn -0.4676 -0.8838 0.0119
vn -0.0330 -0.0108 -0.9994
vn 0.3217 -0.0164 -0.9467
vn 0.5742 0.8004 0.1723
vn -0.0637 -0.0127 -0.9979
vn 0.9997 0.0255 -0.0003
vn 0.0000 0.0120 -0.9999
vn 0.9900 -0.1411 0.0019
vn 0.9983 0.0591 -0.0015
vn -0.3743 0.9117 -0.1695
vn 0.3176 -0.0083 -0.9482
vn 0.0551 -0.9329 -0.3558
vn 0.0000 0.0629 -0.9980
vn 0.0000 -0.0322 0.9995
vn 0.0552 -0.9329 -0.3559
vn -0.0679 0.8480 -0.5257
vn 0.0339 -0.9994 0.0028
vn -0.3132 -0.0608 0.9477
vn -0.0087 -0.0002 1.0000
vn 0.2315 -0.9677 0.0993
vn 0.1991 0.9721 0.1238
vn -0.2526 0.9676 -0.0014
vn 0.0000 0.0591 -0.9983
vn 0.3422 0.9179 0.2010
vn 0.4367 0.0253 -0.8993
vn -0.1172 -0.0900 0.9890
vn -0.9955 -0.0210 0.0926
vn -0.0463 0.9572 -0.2858
vn 0.5436 -0.0081 -0.8393
vn 0.0598 -0.8991 0.4337
vn -0.0557 -0.0206 0.9982
vn -0.9983 0.0591 -0.0015
vn -0.0846 -0.6287 -0.7730
vn 0.9999 0.0154 0.0007
vn -0.2357 -0.9673 -0.0933
vn 0.0303 -0.9900 -0.1376
vn 0.4017 0.0033 -0.9157
vn -0.4716 -0.0270 0.8814
vn 0.1131 -0.9465 0.3021
vn 0.0936 0.0441 0.9946
vn 0.1921 0.0542 -0.9799
vn -0.0730 0.8788 0.4715
vn 0.1256 -0.8617 -0.4916
vn -0.1829 0.9802 -0.0755
vn -0.0779 -0.9949 -0.0645
vn -0.4702 -0.0157 0.8824
vn -0.2704 -0.9496 -0.1584
vn 0.0000 0.0840 0.9965
vn 0.9769 -0.0171 0.2131
vn 0.0375 -0.9809 0.1910
vn -0.0410 0.9721 0.2309
vn -0.9951 -0.0266 -0.0951
vn -0.2278 -0.0622 0.9717
vn 0.8901 0.3694 0.2670
vn 0.7941 0.6077 -0.0082
vn 0.9231 0.0451 0.3819
vn -0.8527 -0.2751 0.4441
vn -0.8296 0.3308 0.4498
vn 0.7869 0.2224 -0.5756
vn -0.5318 -0.8357 -0.1371
vn -0.5027 -0.8622 -0.0626
vn 0.9825 -0.0251 -0.1846
vn 0.9632 -0.0040 -0.2686
vn -0.9982 0.0605 0.0002
vn -0.8730 0.4876 -0.0050
vn 0.2620 -0.9617 -0.0812
vn -0.2707 -0.0154 0.9625
vn -0.4921 -0.8706 -0.0028
vn 0.0000 0.0342 -0.9994
vn -0.0337 0.0242 -0.9991
vn -0.1391 -0.0405 -0.9894
vn 0.0222 -0.4626 -0.8863
vn 0.0000 -0.0172 -0.9999
vn 0.3216 -0.0273 -0.9465
vn 0.3989 -0.0628 -0.9148
vn 0.5759 0.8010 0.1635
vn 0.0000 -0.0703 -0.9975
vn 0.1211 0.1411 -0.9826
vn 0.9907 -0.0070 0.1358
vn -0.3782 0.9110 -0.1644
vn 0.4038 -0.0007 -0.9148
vn 0.4061 -0.0032 -0.9138
vn 0.3131 -0.0178 -0.9496
vn 0.1687 -0.9682 -0.1848
vn 0.0551 -0.9329 -0.3559
vn -0.0733 0.8474 -0.5258
vn -0.0449 -0.0088 0.9990
vn -0.0446 -0.0109 0.9989
vn 0.2294 -0.9681 0.1003
vn 0.2294 -0.9682 0.0997
vn -0.3081 0.9513 -0.0018
vn -0.3079 0.9514 -0.0001
vn 0.0763 0.0448 -0.9961
vn 0.3450 0.9183 0.1944
vn -0.9999 0.0154 0.0007
vn -0.9976 0.0207 0.0656
vn -0.9999 0.0015 0.0131
vn -0.9997 0.0255 -0.0003
vn -0.9961 -0.0875 0.0072
vn -0.9947 0.1025 -0.0014
vn -0.9986 -0.0504 0.0167
vn -0.9949 -0.0314 0.0959
vn 0.7369 -0.6645 0.1239
vn 0.5422 -0.0160 -0.8401
vn 0.9939 0.0144 -0.1095
vn 0.0225 -0.9358 0.3519
vn 0.1137 -0.9029 0.4146
vn 0.0000 0.0390 0.9992
vn 0.3125 0.9436 0.1097
vn 0.9982 0.0603 -0.0004
vn 0.9982 0.0604 0.0002
vn 0.9992 0.0393 0.0019
vn 0.9924 0.0987 -0.0739
vn 0.9992 0.0404 -0.0003
vn -0.5459 -0.0410 0.8368
vn -0.4707 -0.0282 0.8818
vn -0.4691 -0.0206 0.8829
vn 0.0056 -1.0000 0.0024
vn 0.0000 0.0617 0.9981
vn -0.0681 0.8793 0.4714
vn 0.2305 -0.9731 0.0013
vn -0.4701 -0.0151 0.8825
vn -0.2702 -0.9496 -0.1587
vn 0.9773 -0.0267 0.2100
vn 0.9771 -0.0264 0.2111
vn -0.9976 -0.0180 -0.0674
vn -0.9953 -0.0215 -0.0940
vn -0.9986 -0.0406 -0.0342
vn -0.1581 -0.0175 0.9873
usemtl Material.001
s off
f 78/1/1 44/2/1 40/3/1
f 50/4/2 71/5/2 83/6/2
f 78/1/3 43/7/3 44/8/3
f 78/1/4 79/9/4 43/10/4
f 38/11/5 37/12/5 66/13/5
f 48/14/6 85/15/6 54/16/6
f 64/17/7 75/18/7 63/19/7
f 86/20/8 53/21/8 85/22/8
f 71/23/9 72/24/9 51/25/9
f 77/26/10 39/27/10 38/28/10
f 37/29/11 68/30/11 66/31/11
f 41/32/12 42/33/12 68/30/12
f 42/34/13 67/35/13 68/30/13
f 39/36/14 78/37/14 40/3/14
f 77/26/15 67/38/15 79/39/15
f 48/14/16 84/40/16 85/41/16
f 6/42/17 9/43/17 10/44/17
f 71/23/18 51/45/18 52/46/18
f 47/47/19 84/40/19 48/48/19
f 54/49/20 85/15/20 53/21/20
f 79/50/21 42/51/21 43/52/21
f 74/53/22 61/54/22 60/55/22
f 71/23/23 86/56/23 83/57/23
f 76/58/24 17/59/24 18/60/24
f 73/61/25 12/62/25 13/63/25
f 65/64/26 74/65/26 64/66/26
f 2/67/27 4/68/27 1/69/27
f 3/70/28 38/11/28 39/27/28
f 58/71/29 63/72/29 59/73/29
f 65/64/30 90/74/30 74/75/30
f 89/76/31 65/77/31 62/78/31
f 47/47/32 83/6/32 84/79/32
f 60/80/33 19/81/33 74/75/33
f 87/82/34 58/83/34 61/84/34
f 88/85/35 34/86/35 89/76/35
f 81/87/36 24/88/36 25/89/36
f 74/90/37 20/91/37 75/18/37
f 50/92/38 45/93/38 49/94/38
f 52/95/39 57/96/39 53/21/39
f 58/71/40 56/97/40 55/98/40
f 59/99/41 57/100/41 56/101/41
f 64/66/42 63/19/42 5/102/42
f 79/103/43 25/104/43 26/105/43
f 20/106/44 17/107/44 76/108/44
f 70/109/45 66/31/45 69/110/45
f 46/111/46 43/52/46 45/112/46
f 41/113/47 48/114/47 42/51/47
f 70/115/48 6/116/48 7/117/48
f 72/118/49 13/119/49 14/120/49
f 27/121/50 24/122/50 23/123/50
f 30/124/51 29/125/51 32/126/51
f 35/127/52 36/128/52 33/129/52
f 82/130/53 23/131/53 24/132/53
f 31/133/54 30/134/54 32/126/54
f 51/135/40 56/136/40 52/46/40
f 34/137/55 36/128/55 35/138/55
f 3/139/56 40/140/56 4/141/56
f 85/22/57 31/142/57 86/56/57
f 28/143/58 31/144/58 32/126/58
f 19/145/59 18/146/59 21/147/59
f 14/148/60 11/149/60 49/150/60
f 13/151/61 15/152/61 14/153/61
f 83/6/62 31/154/62 28/155/62
f 11/156/63 12/157/63 73/158/63
f 57/159/64 60/160/64 61/54/64
f 62/161/65 65/162/65 5/102/65
f 20/163/66 22/164/66 21/165/66
f 46/166/67 47/167/67 41/168/67
f 18/169/68 17/170/68 21/147/68
f 7/171/69 6/172/69 10/44/69
f 25/173/70 24/174/70 27/121/70
f 79/39/71 26/175/71 82/176/71
f 80/177/72 39/178/72 77/179/72
f 2/180/73 37/29/73 38/181/73
f 20/182/74 21/147/74 17/183/74
f 67/184/75 9/185/75 68/30/75
f 88/186/76 33/187/76 36/128/76
f 26/188/77 25/189/77 27/121/77
f 29/190/78 28/191/78 32/126/78
f 84/79/79 30/192/79 85/41/79
f 84/193/80 28/194/80 29/195/80
f 65/77/81 64/196/81 5/102/81
f 9/197/82 6/198/82 69/199/82
f 12/200/83 11/201/83 15/152/83
f 9/202/84 8/203/84 10/44/84
f 8/204/85 67/38/85 70/205/85
f 61/54/86 90/206/86 87/207/86
f 64/17/87 74/65/87 75/18/87
f 86/20/88 52/208/88 53/21/88
f 37/29/89 41/168/89 68/30/89
f 77/26/90 38/181/90 67/38/90
f 79/50/91 67/35/91 42/51/91
f 71/23/92 52/208/92 86/56/92
f 18/60/93 60/55/93 76/58/93
f 60/55/94 59/209/94 76/58/94
f 13/63/95 71/210/95 73/61/95
f 71/210/96 50/211/96 73/61/96
f 2/67/27 3/70/27 4/68/27
f 3/70/97 2/212/97 38/11/97
f 89/76/98 90/74/98 65/77/98
f 47/47/99 50/92/99 83/6/99
f 60/80/100 18/213/100 19/81/100
f 87/82/101 88/214/101 58/83/101
f 62/78/102 5/102/102 63/215/102
f 63/215/103 58/83/103 89/76/103
f 58/83/104 88/85/104 89/76/104
f 88/85/105 36/128/105 34/86/105
f 89/76/106 62/78/106 63/215/106
f 25/89/107 78/216/107 81/87/107
f 78/216/108 39/217/108 81/87/108
f 74/90/109 19/218/109 20/91/109
f 50/92/110 46/219/110 45/93/110
f 52/95/39 56/220/39 57/96/39
f 58/71/111 59/221/111 56/97/111
f 59/99/112 60/222/112 57/100/112
f 79/103/113 78/223/113 25/104/113
f 76/108/114 59/73/114 75/224/114
f 59/73/115 63/225/115 75/224/115
f 75/224/116 20/106/116 76/108/116
f 70/109/117 38/28/117 66/31/117
f 46/111/46 44/8/46 43/52/46
f 41/113/47 47/47/47 48/114/47
f 70/115/118 69/226/118 6/116/118
f 72/118/119 71/227/119 13/119/119
f 33/129/120 87/228/120 35/127/120
f 87/228/121 90/229/121 35/127/121
f 24/132/122 81/230/122 82/130/122
f 81/230/123 80/231/123 82/130/123
f 51/135/40 55/232/40 56/136/40
f 35/138/124 90/233/124 89/234/124
f 89/234/125 34/137/125 35/138/125
f 3/139/126 39/36/126 40/140/126
f 85/22/127 30/235/127 31/142/127
f 45/236/128 43/10/128 42/237/128
f 42/237/128 48/114/128 45/236/128
f 48/114/129 54/238/129 72/239/129
f 45/236/130 48/114/130 49/150/130
f 54/238/131 61/240/131 55/241/131
f 61/240/131 58/242/131 55/241/131
f 55/241/131 51/135/131 54/238/131
f 49/150/132 48/114/132 72/239/132
f 54/238/133 51/135/133 72/239/133
f 14/148/134 15/152/134 11/149/134
f 72/239/135 14/148/135 49/150/135
f 13/151/136 15/152/136 16/243/136
f 83/6/137 86/244/137 31/154/137
f 13/245/138 12/246/138 15/247/138
f 73/158/139 50/248/139 49/249/139
f 49/249/140 11/156/140 73/158/140
f 61/54/141 54/16/141 57/159/141
f 54/16/141 53/250/141 57/159/141
f 20/163/142 19/251/142 21/165/142
f 37/12/143 1/252/143 40/253/143
f 1/252/144 4/68/144 40/253/144
f 40/253/145 44/254/145 41/168/145
f 46/166/146 50/4/146 47/167/146
f 40/253/147 41/168/147 37/12/147
f 44/254/67 46/166/67 41/168/67
f 26/175/148 27/121/148 23/255/148
f 82/176/149 80/256/149 79/39/149
f 80/256/149 77/257/149 79/39/149
f 26/175/150 23/255/150 82/176/150
f 80/177/151 81/258/151 39/178/151
f 2/180/152 1/259/152 37/29/152
f 67/184/153 8/260/153 9/185/153
f 88/186/154 87/261/154 33/187/154
f 84/79/155 29/262/155 30/192/155
f 84/193/156 83/57/156 28/194/156
f 69/199/157 66/13/157 68/263/157
f 68/263/158 9/197/158 69/199/158
f 67/38/159 38/264/159 70/205/159
f 70/205/160 7/265/160 8/204/160
f 7/265/161 10/44/161 8/204/161
f 61/54/162 74/75/162 90/206/162
